<svg width="116" height="103" viewBox="0 0 116 103" fill="none" xmlns="http://www.w3.org/2000/svg">
<path d="M58.0027 97.5L58.0116 97.5C58.1527 97.5003 58.2918 97.4692 58.4189 97.4092C59.5158 96.8697 72.7103 90.2928 85.5956 78.7964C98.6806 67.1219 110.5 51.2354 110.5 32.1872C110.5 26.9106 108.934 21.752 105.998 17.3637C103.063 12.9752 98.8906 9.55383 94.0076 7.53299C89.1245 5.51213 83.7508 4.98289 78.5663 6.01246C73.3821 7.04196 68.6207 9.58366 64.8837 13.3153C64.8835 13.3155 64.8833 13.3157 64.8831 13.3159L61.887 16.3087L58 20.1916L54.113 16.3087L51.1169 13.3159C51.1167 13.3157 51.1165 13.3155 51.1163 13.3153C47.3793 9.58366 42.6179 7.04196 37.4337 6.01246C32.2492 4.98289 26.8755 5.51213 21.9924 7.53299C17.1094 9.55383 12.9368 12.9752 10.0016 17.3637C7.0664 21.752 5.50009 26.9106 5.5 32.1872L58.0027 97.5ZM58.0027 97.5L57.9939 97.5M58.0027 97.5L57.9939 97.5M57.9939 97.5C57.8512 97.5001 57.7105 97.4682 57.5824 97.4068M57.9939 97.5L57.5824 97.4068M57.5824 97.4068C56.5846 96.9208 43.3403 90.3783 30.4066 78.8585C17.3264 67.2082 5.50003 51.3187 5.5 32.1873L57.5824 97.4068Z" stroke="white" stroke-width="11"/>
</svg>
