<svg width="116" height="103" viewBox="0 0 116 103" fill="none" xmlns="http://www.w3.org/2000/svg">
<path d="M59.7668 14.1863L62.7632 11.1931C62.7633 11.193 62.7634 11.1929 62.7635 11.1928C66.9203 7.04181 72.2163 4.21489 77.982 3.06992C83.7478 1.92492 89.7239 2.51346 95.1547 4.761C100.586 7.00853 105.227 10.814 108.492 15.6958C111.757 20.5776 113.5 26.3166 113.5 32.1872C113.5 52.5138 100.911 69.1524 87.5928 81.035C74.3568 92.8442 60.826 99.5693 59.7282 100.109C59.191 100.367 58.6019 100.501 58.0053 100.5L57.9972 100.5C57.4006 100.501 56.8116 100.366 56.2747 100.107C55.2146 99.5908 41.6656 92.9041 28.4112 81.0987C15.094 69.2373 2.5 52.5955 2.5 32.1872C2.50008 26.3166 4.24274 20.5776 7.50795 15.6958C10.7732 10.814 15.4145 7.00853 20.8453 4.761C26.2761 2.51346 32.2522 1.92492 38.018 3.06992C43.7837 4.21489 49.0797 7.04181 53.2365 11.1928C53.2366 11.1929 53.2367 11.193 53.2368 11.1931L56.2332 14.1863L58 15.9512L59.7668 14.1863Z" fill="url(#paint0_linear_43_686)" stroke="white" stroke-width="5"/>
<defs>
<linearGradient id="paint0_linear_43_686" x1="89.5" y1="86.5" x2="6.65581e-06" y2="9" gradientUnits="userSpaceOnUse">
<stop stop-color="#74D9DC"/>
<stop offset="0.395" stop-color="#B6A3FF"/>
<stop offset="0.875" stop-color="#FF8CA5"/>
<stop offset="0.985" stop-color="#FEFABB"/>
</linearGradient>
</defs>
</svg>
